<?xml version="1.0" encoding="UTF-8" standalone="no"?>
<!-- Created with Inkscape (http://www.inkscape.org/) -->

<svg
   xmlns:dc="http://purl.org/dc/elements/1.1/"
   xmlns:cc="http://creativecommons.org/ns#"
   xmlns:rdf="http://www.w3.org/1999/02/22-rdf-syntax-ns#"
   xmlns:svg="http://www.w3.org/2000/svg"
   xmlns="http://www.w3.org/2000/svg"
   xmlns:sodipodi="http://sodipodi.sourceforge.net/DTD/sodipodi-0.dtd"
   xmlns:inkscape="http://www.inkscape.org/namespaces/inkscape"
   width="449.14316mm"
   height="530.36395mm"
   viewBox="0 0 449.14316 530.36395"
   version="1.1"
   id="svg904"
   inkscape:version="0.92.1 r15371"
   sodipodi:docname="prepa.svg">
  <defs
     id="defs898" />
  <sodipodi:namedview
     id="base"
     pagecolor="#ffffff"
     bordercolor="#666666"
     borderopacity="1.0"
     inkscape:pageopacity="0.0"
     inkscape:pageshadow="2"
     inkscape:zoom="0.0875"
     inkscape:cx="511.63157"
     inkscape:cy="1007.9768"
     inkscape:document-units="mm"
     inkscape:current-layer="layer1"
     showgrid="false"
     fit-margin-top="0"
     fit-margin-left="0"
     fit-margin-right="0"
     fit-margin-bottom="0"
     inkscape:window-width="1024"
     inkscape:window-height="551"
     inkscape:window-x="0"
     inkscape:window-y="0"
     inkscape:window-maximized="1" />
  <metadata
     id="metadata901">
    <rdf:RDF>
      <cc:Work
         rdf:about="">
        <dc:format>image/svg+xml</dc:format>
        <dc:type
           rdf:resource="http://purl.org/dc/dcmitype/StillImage" />
        <dc:title></dc:title>
      </cc:Work>
    </rdf:RDF>
  </metadata>
  <g
     inkscape:label="Capa 1"
     inkscape:groupmode="layer"
     id="layer1"
     transform="translate(196.60133,114.83673)">
    <path
       style="fill:#00276d;fill-opacity:1;stroke-width:0.26458332"
       d="m -41.821947,415.38586 c -7.84263,-0.62029 -14.71524,-2.42287 -20.08536,-5.26804 -7.30928,-3.8726 -13.8769,-10.47168 -17.66366,-17.7483 -4.97864,-9.56686 -7.04878,-21.59489 -6.01316,-34.93826 0.55541,-7.15615 2.563,-17.42784 4.41882,-22.60862 0.92653,-2.58654 2.67956,-6.00522 2.98312,-5.8176 0.13932,0.0861 0.18888,-0.0114 0.11014,-0.21651 -0.21992,-0.57317 3.51081,-5.38885 5.67658,-7.32734 9.66961,-8.65495 23.13545,-11.82728 46.99244,-11.07065 5.6964,0.18066 9.01671,0.39757 17.7270801,1.15808 3.35509,0.29295 9.25308,0.95351 9.34635,1.04678 0.0984,0.0983 -4.10439,21.04226 -4.25213,21.18997 -0.0435,0.0435 -1.86235,-0.0872 -4.04188,-0.29048 -14.5571001,-1.35766 -27.3700901,-1.45802 -33.6192701,-0.26332 -3.77754,0.72218 -6.7461,1.93837 -8.81948,3.61326 -0.49784,0.40217 -1.02228,0.65884 -1.16536,0.57039 -0.14312,-0.0884 -0.18359,-0.0368 -0.0899,0.11469 0.0936,0.1515 -0.0275,0.43781 -0.26934,0.6362 -0.86187,0.7072 -2.97755,4.25381 -3.78213,6.34018 -3.30729,8.5761 -4.26336,19.3272 -2.46811,27.7549 0.23248,1.0914 0.43512,2.2225 0.45032,2.51354 0.0152,0.29104 0.0881,0.5887 0.16211,0.66146 0.0739,0.0728 0.36152,0.78713 0.63902,1.5875 1.44801,4.17618 3.60697,7.65601 6.40288,10.3202 3.30337,3.14775 6.80053,4.69654 12.27049,5.43431 2.82148,0.38057 10.42737,0.51435 12.23698,0.21526 l 0.99219,-0.16401 v -15.84037 -15.84039 h 14.1552101 14.1552 v 24.94851 24.94852 l -6.94531,1.12289 c -14.1930301,2.29476 -22.1023001,3.14746 -30.8901001,3.33023 -3.12868,0.0651 -7.00486,0.0143 -8.61371,-0.11298 z m -149.871833,-52.47026 1.3e-4,-51.28204 24.93698,0.12049 c 24.74249,0.11954 26.44684,0.17708 33.13906,1.11897 7.47779,1.05244 14.22559,3.32923 18.20588,6.14291 3.16026,2.23399 7.03754,6.34032 6.62182,7.01297 -0.0941,0.15219 -0.0448,0.19862 0.10949,0.10324 0.40511,-0.25037 2.56535,4.28101 3.35435,7.03614 0.74991,2.61872 2.04603,10.15051 2.69784,15.67728 0.62333,5.28532 0.62621,16.36157 0.005,20.6375 -1.23755,8.52329 -3.42724,15.20497 -7.10203,21.67115 -1.57569,2.77257 -3.39497,5.44864 -3.70418,5.44864 -0.11687,0 -0.21249,0.12542 -0.21249,0.27872 0,0.65225 -3.22277,4.31276 -5.82084,6.6114 -3.96956,3.51208 -11.76227,6.92685 -19.56882,8.57515 -8.15336,1.72148 -9.61626,1.81163 -32.09121,1.9776 l -20.57148,0.15193 1.3e-4,-51.28205 z m 42.73034,27.46732 c 4.04082,-0.77909 6.9395,-2.39702 9.69878,-5.4135 3.07705,-3.36389 5.19858,-7.51171 6.56764,-12.84053 2.00304,-7.79639 1.70005,-20.12923 -0.66246,-26.96498 -0.34777,-1.00624 -0.5588,-1.95874 -0.46895,-2.11667 0.0898,-0.1579 0.0691,-0.20203 -0.046,-0.0981 -0.11517,0.10398 -0.64028,-0.51466 -1.1669,-1.37475 -2.20733,-3.60502 -4.94013,-5.61787 -9.02729,-6.64905 -0.70461,-0.17778 -5.05187,-0.36804 -10.64978,-0.46615 l -9.45915,-0.16573 2.7e-4,28.23588 2.6e-4,28.23586 3.10886,0.0998 c 4.52411,0.14526 9.97739,-0.0719 12.10468,-0.48207 z m 176.542553,-27.316 c 0.036,-28.19467 0.0658,-51.32256 0.0661,-51.39532 0,-0.14851 69.39721,-0.0124 69.54602,0.13629 0.0522,0.0523 -0.0374,1.32289 -0.19924,2.82363 -0.16181,1.50075 -0.65005,6.12191 -1.08495,10.26925 -0.43492,4.14734 -0.85796,8.04664 -0.94006,8.6651 l -0.14933,1.12448 h -19.95985 -19.9598 v 7.40834 7.40833 h 18.8196 18.81955 l -0.16102,1.52135 c -0.0886,0.83672 -0.46308,5.50995 -0.83222,10.3849 -0.36915,4.87495 -0.73607,9.36953 -0.81537,9.98802 l -0.14422,1.12448 h -17.84649 -17.8465 l 0.0695,9.45885 0.0695,9.45886 21.21398,0.0677 21.21397,0.0677 0.14182,1.38747 c 0.078,0.76314 0.32554,5.13797 0.55012,9.72188 0.22458,4.58391 0.47638,9.07849 0.55954,9.98802 l 0.15124,1.65365 h -35.67367 -35.67367 z m 114.476937,51.02045 c -0.0606,-0.0606 -0.11012,-17.71161 -0.11012,-39.22448 v -39.1142 h -15.74271 c -13.14405,0 -15.74271,-0.0598 -15.74271,-0.36206 0,-0.19912 0.54261,-4.21748 1.20582,-8.92969 0.6632,-4.7122 1.3958,-9.96661 1.62798,-11.67648 l 0.42217,-3.10886 h 43.61889 43.61889 l -0.18219,1.12448 c -0.10018,0.61847 -0.84868,6.00604 -1.66328,11.9724 l -1.48109,10.84791 -14.08255,0.0685 -14.08255,0.0685 v 39.15132 39.15132 l -13.64822,0.0708 c -7.50654,0.039 -13.69779,0.0212 -13.75833,-0.0394 z m 87.92998,0.0421 -16.33802,-0.0682 v -51.1948 -51.19487 h 16.53646 16.53646 v 51.18127 c 0,28.14965 -0.0893,51.21804 -0.19844,51.26302 -0.10911,0.0449 -7.55054,0.0511 -16.53646,0.0135 z M 52.781343,282.72542 c 0,-0.19333 -2.93187,-14.30348 -3.06564,-14.75393 -0.1209,-0.40712 0.54165,-0.42966 8.67727,-0.29539 4.84449,0.08 8.85325,0.18447 8.90831,0.23223 0.0971,0.0842 -1.71552,9.52741 -2.52183,13.13775 l -0.39885,1.78594 h -5.79963 c -3.18978,0 -5.79963,-0.048 -5.79963,-0.1066 z m -21.26851,-2.81609 c -2.8937,-0.55928 -5.4113,-1.07445 -5.59467,-1.1448 -0.35415,-0.13592 -0.52987,-2.70008 -0.76123,-11.10957 l -0.12273,-4.46143 0.84286,0.17198 c 0.46355,0.0946 4.35518,0.83236 8.64803,1.63949 4.29288,0.80711 7.83974,1.50191 7.88197,1.54398 0.1971,0.19637 -1.66765,4.58875 -1.88979,4.45146 -0.13921,-0.0861 -0.17244,-0.0259 -0.0739,0.13356 0.13963,0.22592 -3.44251,9.92925 -3.62486,9.81905 -0.0243,-0.0148 -2.41205,-0.48447 -5.3057,-1.04372 z M 4.6374431,272.00567 c -2.832,-1.14213 -5.19236,-2.20642 -5.24524,-2.36506 -0.0782,-0.23461 2.27951,-14.89565 2.41624,-15.02519 0.0869,-0.0823 15.9285899,6.31175 16.1385999,6.51394 0.20235,0.19481 -7.71825,12.98305 -8.0281999,12.96196 -0.0727,-0.005 -2.44937,-0.9435 -5.2814,-2.08565 z M -16.804077,261.63032 c -0.94586,-0.59841 -1.80724,-1.22227 -1.91417,-1.38639 -0.10692,-0.16409 -0.19621,-0.19063 -0.19844,-0.0589 -0.004,0.13168 -0.2124,0.0636 -0.46707,-0.15137 -0.25467,-0.21495 -1.38705,-0.95705 -2.51644,-1.64909 -1.12935,-0.69207 -1.98638,-1.36674 -1.90447,-1.49927 0.0819,-0.13252 -0.024,-0.17467 -0.23495,-0.0937 -0.75508,0.28977 -0.70552,-0.43174 0.19608,-2.85395 0.50337,-1.35234 1.64994,-4.48284 2.54797,-6.95669 0.89799,-2.47386 1.71041,-4.58007 1.80534,-4.68048 0.0949,-0.10038 3.20872,1.73326 6.91949,4.07479 3.7108001,2.34154 7.0615501,4.44262 7.4461501,4.66905 l 0.69927,0.41169 -1.7576,1.89172 c -7.0625101,7.60135 -8.6132501,9.25116 -8.7482201,9.30712 -0.0842,0.0349 -0.92703,-0.42614 -1.87294,-1.02455 z m 230.514957,-41.96757 0.0694,-40.94427 0.70148,-1.45521 c 1.61203,-3.34417 4.39484,-5.5852 7.84435,-6.31709 0.91524,-0.1942 5.39411,-0.29749 12.89843,-0.29749 h 11.49636 v 44.97916 44.97917 H 230.18116 213.64142 Z M 52.119883,260.17197 c -0.43656,-0.0501 -2.10344,-0.21654 -3.70417,-0.36976 -9.70629,-0.92916 -21.79298,-3.81672 -31.44594,-7.51255 -3.79243,-1.45201 -7.7302799,-3.15627 -8.1754099,-3.5382 -0.25467,-0.21852 -0.46302,-0.31168 -0.46302,-0.20706 0,0.10462 -0.44647,-0.0472 -0.99219,-0.3375 -0.54571,-0.29025 -2.24232,-1.14385 -3.77031,-1.89685 -1.52795,-0.75303 -2.98647,-1.55366 -3.24115,-1.77917 -0.25467,-0.22553 -0.46302,-0.33853 -0.46302,-0.25111 0,0.17214 -2.08886,-0.99563 -5.95312,-3.32806 -0.29104,-0.17566 -0.90816,-0.58759 -1.37139,-0.91538 -0.46323,-0.3278 -0.944,-0.59598 -1.06835,-0.59598 -0.12436,0 -0.63828,-0.35234 -1.14212,-0.783 -0.5038401,-0.43064 -1.0475001,-0.78783 -1.2081601,-0.79375 -0.16065,-0.006 -0.60995,-0.30533 -0.99847,-0.66541 -0.38851,-0.36007 -0.79286,-0.67365 -0.89852,-0.69685 -0.52095,-0.11444 -1.88415,-1.23392 -1.7121,-1.40597 0.10837,-0.10838 0.0619,-0.15735 -0.10333,-0.10883 -0.2927,0.0859 -1.47454,-0.68315 -3.52365,-2.29306 -0.55566,-0.43656 -1.91477,-1.49312 -3.02024,-2.34791 -1.1055,-0.85479 -1.93414,-1.67688 -1.84146,-1.82682 0.0927,-0.14997 0.0514,-0.20029 -0.0917,-0.11181 -0.4837,0.29892 -10.01272,-8.63915 -9.71826,-9.11559 0.11021,-0.17833 0.0735,-0.23431 -0.0883,-0.13438 -0.27291,0.16867 -4.10393,-3.66863 -5.53247,-5.54154 -0.40249,-0.52768 -1.06384,-1.3149 -1.46971,-1.74937 -0.40583,-0.43445 -0.67687,-0.88866 -0.6023,-1.00933 0.0746,-0.12065 -0.004,-0.30554 -0.17416,-0.41085 -0.20536,-0.12692 -0.24497,-0.0662 -0.11748,0.18016 0.61634,1.19102 -3.3662,-3.93295 -5.95972,-7.66776 -5.02204,-7.23201 -11.42181,-18.58462 -10.92754,-19.38441 0.10435,-0.16883 0.081,-0.23974 -0.052,-0.15756 -0.23601,0.14587 -0.4983,-0.33903 -1.71834,-3.17648 l -0.59729,-1.38906 h -42.550723 -42.55075 v -17.16961 c 0,-15.52933 0.0406,-17.18521 0.42539,-17.33285 0.23396,-0.0898 17.40873,-0.1618 38.16614,-0.16003 35.805063,0.003 37.738213,-0.0206 37.691113,-0.46038 -0.0272,-0.25498 -0.23329,-1.83282 -0.45776,-3.5063 -1.09054,-8.13119 -1.41235,-21.02139 -0.71335,-28.575 1.32249,-14.29197 3.93375,-25.06767 9.69722,-40.01671 0.0979,-0.25383 0.25478,-0.41408 0.34865,-0.35612 0.0939,0.058 0.188,-0.18292 0.20917,-0.53528 0.0459,-0.76419 4.69169,-10.2986 6.75389,-13.86064 4.17883,-7.21815 9.68569,-15.02349 14.36582,-20.36197 2.67751,-3.05414 6.66644,-7.29224 8.59049,-9.12716 1.2276,-1.17072 2.59683,-2.49361 3.04271,-2.93976 1.81546,-1.81651 7.90857,-6.70728 8.16148,-6.55098 0.1494,0.0923 0.1967,0.0467 0.10512,-0.10151 -0.14005,-0.22664 1.46848,-1.56023 3.9224,-3.25195 3.89255,-2.68352 8.3174401,-5.5562504 8.5583201,-5.5562504 0.16721,0 0.30402,-0.092 0.30402,-0.20442 0,-0.11243 0.44648,-0.43486 0.99219,-0.71651 0.54571,-0.28165 1.32447,-0.73701 1.73059,-1.0119 1.64606,-1.11421 12.18857,-6.28954004 12.5386,-6.15522004 0.20708,0.0795 0.31132,0.039 0.2316,-0.09 -0.19008,-0.3076 5.8827099,-2.73544996 6.2596199,-2.50251996 0.16037,0.0991 0.21501,0.0583 0.12245,-0.0915 -0.20134,-0.32572 8.69939,-3.33549 13.8437,-4.68125 7.71708,-2.01879 16.97831,-3.5449596 25.00312,-4.1202696 2.0373,-0.14606 7.84158,-0.2666 12.89844,-0.26788 5.05686,-0.001 9.19378,-0.0916 9.19314,-0.20076 0,-0.10914 -0.35134,-0.72631 -0.77935,-1.37148 -0.42802,-0.64518 -0.70676,-1.28865 -0.61945,-1.42995 0.0873,-0.14129 0.0511,-0.19197 -0.0805,-0.11262 -0.13163,0.0794 -0.89008,-0.82499 -1.6855,-2.009642 -0.79541,-1.184651 -2.37662,-3.320249 -3.51385,-4.745768 -1.13988,-1.42893 -1.98628,-2.723454 -1.88637,-2.885154 0.0997,-0.161311 0.0645,-0.221134 -0.0782,-0.132938 -0.14272,0.08819 -1.75758,-1.483481 -3.58864,-3.492611 -1.83106,-2.009132 -4.85807,-4.997354 -6.72673,-6.640494 -1.86867,-1.643136 -3.37443,-3.069314 -3.34613,-3.169285 0.0282,-0.09997 -0.0907,-0.18257 -0.26459,-0.183562 -0.45833,-0.0024 -4.03366,-2.773707 -3.94748,-3.059563 0.04,-0.132638 -0.0439,-0.169095 -0.18644,-0.08101 -0.24479,0.151296 -2.96086,-1.604299 -3.14946,-2.035718 -0.0485,-0.110971 -0.1742,-0.201766 -0.27933,-0.201766 -0.37422,0 -5.83815,-3.363415 -5.69556,-3.506015 0.0799,-0.07988 -0.0116,-0.127375 -0.20313,-0.105547 -0.19159,0.02183 -1.95569,-0.749589 -3.92024,-1.714259 -11.01972,-5.411166 -23.17997,-8.773827 -37.8883699,-10.477238 -3.71584,-0.430337 -7.60948,-0.468816 -47.4397501,-0.468816 -41.31709,0 -43.4992,0.02352 -45.64063,0.492025 -10.438863,2.283788 -15.330133,7.710535 -17.118453,18.992511 -0.42302,2.668683 -0.47633,4.930061 -0.47633,20.202964 0,15.6642656 0.0427,17.3797856 0.47861,19.23735556 0.96523,4.11310004 2.63259,6.42849004 5.73307,7.96125004 l 1.71376,0.84723 14.227373,0.0749 c 7.82507,0.0412 14.22739,0.11093 14.22739,0.15497 0,0.044 -0.4166,1.9153104 -0.92576,4.1584204 -0.5092,2.24311 -1.34147,5.92384 -1.84954,8.17941 -3.01294,13.37558 -4.88608,21.50791 -4.97435,21.59617 -0.0555,0.0555 -25.632473,0.0708 -56.837773,0.0341 l -56.73692,-0.06669 1.77858,-7.54063 c 0.97822,-4.14734 1.98717,-8.45569 2.24212,-9.57409 0.25494,-1.11841 0.55745,-1.97542 0.67223,-1.90449 0.11478,0.0709 0.14428,-0.0389 0.0656,-0.24403 -0.12317,-0.32097 0.42327,-2.83954 2.7666,-12.75135 l 0.43787,-1.8520804 16.39788,-0.13813 c 17.94644,-0.15118 17.62338,-0.12306 20.49506,-1.78422 2.85666,-1.65248 4.513,-3.87624 5.85979,-7.86723004 l 0.62499,-1.85208996 0.14741,-40.7458316 c 0.15007,-41.483211 0.16081,-41.906171 1.10705,-43.624378 0.16993,-0.308568 0.33478,-0.715706 0.36633,-0.90474 0.0897,-0.537168 1.34395,-2.077304 2.17191,-2.666867 0.4124,-0.293655 1.39494,-0.807974 2.18342,-1.142925 l 1.43359,-0.609004 69.188533,-0.08039 c 48.90403,-0.05682 70.3133001,0.0057 73.0250001,0.213166 11.4026899,0.872525 21.7923199,3.162392 33.1253699,7.300799 5.6756,2.072521 9.27584,3.648048 9.00892,3.94245 -0.10879,0.120005 -0.0492,0.132681 0.13244,0.02815 0.82853,-0.47675 11.97486,5.509016 19.367,10.400408 5.47324,3.621646 8.36206,5.748761 12.04673,8.87023 0.86976,0.736868 1.8756,1.577886 2.23517,1.868927 5.41851,4.386242 13.64957,13.098471 19.37271,20.505209 3.273317,4.236259 10.345927,15.08125 9.835277,15.08125 -0.0913,0 0.0119,0.208362 0.22971,0.46302 0.63871,0.747287 2.52582,4.400389 4.4763,8.665105 l 1.81507,3.968742 42.47036,0.067 42.47036,0.067 V 6.4773696 23.80853 l -38.00824,-0.005 c -20.90457,-0.003 -38.05224,0.0387 -38.10601,0.0924 -0.0537,0.0538 0.0787,1.27574 0.29425,2.71554 1.52029,10.15413 1.62507,24.57683 0.25728,35.42613 -1.30778,10.37304 -3.8109,20.41939 -7.51528,30.1625 -2.14699,5.64694 -3.72851,9.14502 -4.0459,8.94887 -0.16296,-0.10071 -0.1886,-0.0348 -0.0646,0.1659 0.12441,0.20131 -0.40172,1.52227 -1.33048,3.34038 -1.32768,2.5991 -1.59253,2.96355 -1.95083,2.68445 -0.36462,-0.28401 -0.37116,-0.26751 -0.0541,0.13687 0.31644,0.40366 0.17306,0.7914 -1.17401,3.175 -3.09325,5.47343 -5.98467,9.79726 -11.235747,16.80189 -0.46265,0.61717 -0.96554,1.04525 -1.11754,0.95131 -0.15203,-0.0939 -0.20066,-0.0483 -0.10811,0.1015 0.58891,0.95283 -17.74243,19.53158 -18.92811,19.18362 -0.13628,-0.04 -0.18042,0.0363 -0.0981,0.1695 0.15558,0.25174 -1.15083,1.25603 -1.49939,1.15267 -0.10917,-0.0324 -0.16867,0.0487 -0.13229,0.18024 0.0721,0.26077 -5.77051,4.71432 -8.53282,6.50415 -1.55678,1.0087 -5.43776,3.47882 -6.75309,4.29813 -3.49694,2.17824 -14.1151,7.51761 -15.06287,7.57441 -0.34255,0.0206 -0.57545,0.11409 -0.51756,0.20791 0.0579,0.0938 -1.17387,0.66813 -2.73734,1.27619 -1.56348,0.6081 -3.37845,1.32014 -4.03331,1.58234 -3.53127,1.41394 -11.98146,3.89105 -17.06563,5.00267 -10.84682,2.37159 -16.8112299,2.98103 -31.1677699,3.18468 l -11.3240301,0.16063 2.03274,3.04271 c 2.9088,4.35409 5.56666,7.83531 8.67111,11.35732 0.9524301,1.0805 1.6596001,2.08118 1.5715501,2.22369 -0.0881,0.1425 -0.044,0.1873 0.098,0.0996 0.33585,-0.20759 5.1972,4.67016 4.92538,4.94199 -0.11384,0.11383 -0.0756,0.16727 0.0851,0.11875 0.16058,-0.0485 1.41075,0.87233 2.77812,2.04629 3.4466,2.9591 9.01143,7.06932 11.4819299,8.48066 0.29104,0.16626 1.47877,0.85219 2.63945,1.52432 1.16064,0.67209 2.20944,1.222 2.33069,1.222 0.12125,0 0.13551,0.13745 0.0317,0.30546 -0.1126,0.18219 -0.073,0.23392 0.0981,0.12819 0.15776,-0.0975 0.86077,0.15881 1.56224,0.56957 3.30951,1.93807 12.63755,5.61337 18.60941,7.33227 3.99034,1.14853 10.78798,2.59889 15.34199,3.27342 8.38645,1.24217 7.56609,1.22338 53.445817,1.22338 h 43.52396 l 2.51354,-0.62359 c 9.54273,-2.36747 14.01869,-7.05647 16.2001,-16.9712 0.52432,-2.38313 0.55856,-3.45242 0.65979,-20.6075 0.11768,-19.95281 0.0769,-20.60313 -1.50837,-24.02789 -0.81608,-1.76308 -2.57616,-3.72161 -4.01206,-4.4645 -2.14204,-1.10821 -2.96788,-1.16454 -17.12415,-1.16779 l -13.58992,-0.003 0.1211,-0.7276 c 0.0666,-0.40019 0.67699,-3.16839 1.35643,-6.15157 0.67946,-2.98315 2.34366,-10.3055 3.69824,-16.27185 l 2.46285,-10.84792 56.8003,-0.0667 c 31.24015,-0.0367 56.80028,0.0159 56.80028,0.11679 0,0.22128 -7.52933,32.36698 -7.84323,33.48588 -0.12184,0.43431 -1.10257,0.46302 -15.81246,0.46302 -14.75874,0 -15.80311,0.0308 -17.72898,0.52337 -3.75666,0.96081 -6.5277,3.04358 -8.01849,6.02689 -0.44556,0.89165 -0.90168,1.53877 -1.01362,1.43807 -0.11189,-0.10073 -0.12626,-0.0479 -0.0317,0.11734 0.0944,0.16526 -0.0949,1.23682 -0.42058,2.38125 l -0.59225,2.08079 -0.0512,39.6875 c -0.0367,28.43466 -0.13692,40.13761 -0.35327,41.275 -0.35822,1.88293 -1.56821,4.54697 -2.42432,5.33757 -0.94422,0.87194 -2.50169,1.65629 -4.13205,2.08095 -1.28606,0.33496 -10.82863,0.3814 -71.34519,0.34705 -38.423317,-0.0217 -70.217757,-0.0807 -70.654317,-0.13083 z m -20.84144,-4.22273 c -0.0879,-0.0879 -0.31612,-0.0973 -0.50712,-0.0209 -0.21107,0.0845 -0.14837,0.14716 0.15985,0.15986 0.2789,0.0114 0.43518,-0.0511 0.34727,-0.13898 z M -6.2207369,144.04349 C 12.455983,142.50536 29.043073,137.6346 42.304723,129.7941 c 1.10547,-0.65358 2.00995,-1.14599 2.00995,-1.09425 0,0.19947 6.96281,-4.59741 9.84966,-6.78569 1.78044,-1.34964 4.10768,-3.45917 5.63161,-5.10488 1.83307,-1.97951 2.72069,-2.75776 3.01685,-2.64511 0.32907,0.12517 0.35048,0.09 0.0993,-0.16314 -0.25121,-0.2531 0.0127,-0.69898 1.22284,-2.06619 0.84875,-0.9589 2.20288,-2.57689 3.00923,-3.59553 0.80634,-1.01865 1.68475,-2.10351 1.95214,-2.4108 0.26736,-0.30729 0.62383,-0.78354 0.79218,-1.05833 0.16839,-0.27479 0.44511,-0.46691 0.615,-0.42692 0.16986,0.04 0.23741,-0.0429 0.1501,-0.18419 -0.14748,-0.23863 3.17638,-5.07255 3.62265,-5.26837 0.11052,-0.0485 0.20095,-0.20565 0.20095,-0.34921 0,-0.14355 0.34174,-0.75871 0.75941,-1.36701 1.3046,-1.90008 4.00865,-6.52283 5.83364,-9.97305 5.52312,-10.44179 8.90487,-20.9067 10.51538,-32.54025 0.57563,-4.15773 0.66249,-16.69094 0.14489,-20.90208 -0.2994,-2.43588 -1.11575,-7.54248 -1.5272,-9.55337 l -0.14116,-0.68982 -4.41907,-0.10393 c -23.58734,-0.55472 -39.2462,1.39889 -54.68986,6.82317 -3.90334,1.37098 -10.29663,4.05935 -11.96449,5.03109 -0.61408,0.35779 -1.25758,0.56338 -1.42991,0.45686 -0.18955,-0.11714 -0.24345,-0.0805 -0.13639,0.0927 0.0979,0.15833 -0.0693,0.3646 -0.37391,0.46127 -0.303,0.0962 -1.40606,0.67797 -2.45124,1.2929 -1.04517,0.61493 -2.07888,1.18526 -2.29718,1.2674 -0.21826,0.0821 -2.28692,1.41176 -4.5970099,2.95473 -2.31006,1.54296 -4.32276,2.72959 -4.47266,2.63696 -0.14986,-0.0926 -0.19417,-0.0417 -0.0985,0.11317 0.0981,0.15876 -1.00937,1.21054 -2.5388,2.41111 -1.63336,1.28211 -3.75624,3.31833 -5.33495,5.11708 -1.44212,1.64318 -2.73093,2.95488 -2.86392,2.91489 -0.13304,-0.04 -0.17152,0.0411 -0.0856,0.18016 0.0859,0.13907 0.0251,0.33389 -0.13511,0.43294 -0.16023,0.0991 -1.6993,1.9436 -3.4201101,4.09901 -1.72078,2.15541 -3.20887,3.83878 -3.30687,3.74081 -0.098,-0.098 -0.13843,-0.0446 -0.0899,0.11861 0.0866,0.29124 -4.46666,7.02692 -4.86696,7.19979 -0.11232,0.0485 -0.20422,0.21478 -0.20422,0.36949 0,0.15471 -0.43367,0.93468 -0.96376,1.73326 -2.17769,3.28083 -5.7779,10.117 -7.87664,14.95639 -5.72841,13.20889 -8.16815,26.40668 -7.53015,40.73484 0.26,5.83921 1.48544,14.6736 2.1372,15.4074 0.6115,0.68848 19.30971,0.67865 27.7271001,-0.0146 z M -38.764487,246.136 c -0.36379,-0.35448 -2.28074,-2.08023 -4.25986,-3.83497 l -3.59837,-3.19048 3.44226,-6.11897 c 1.89325,-3.36542 3.64532,-6.38251 3.8935,-6.70464 l 0.45124,-0.58571 3.14445,2.80903 c 1.72949,1.54495 4.09392,3.654 5.25434,4.68675 1.16043,1.03274 2.68948,2.41789 3.39789,3.07811 l 1.28806,1.20038 -1.41354,1.06342 c -2.6391,1.98543 -7.22803,5.48193 -8.82185,6.72171 -2.1071,1.63909 -2.02187,1.61227 -2.77812,0.87537 z m -19.76808,-20.12325 c -0.25612,-0.40018 -0.61052,-0.8794 -0.78751,-1.0649 -0.17698,-0.1855 -0.74408,-0.85262 -1.26019,-1.48246 -0.94671,-1.15535 -1.19521,-1.67748 -0.63292,-1.32998 0.19078,0.1179 0.23358,0.0725 0.11402,-0.12099 -0.1053,-0.17039 -0.29273,-0.2472 -0.41653,-0.17068 -0.12379,0.0765 -0.96191,-0.76976 -1.86248,-1.88056 -1.25664,-1.54995 -1.55389,-2.07264 -1.27805,-2.24739 0.1977,-0.12526 0.27065,-0.22958 0.1621,-0.23181 -0.10855,-0.003 0.41064,-0.74818 1.15376,-1.65769 0.74309,-0.9095 1.94413,-2.39779 2.66891,-3.30729 0.72478,-0.90951 1.42596,-1.65365 1.55822,-1.65365 0.13222,0 0.24267,-0.14882 0.24546,-0.33073 0.004,-0.1819 0.82158,-1.30714 1.81959,-2.50057 l 1.81455,-2.16985 3.8028,4.77978 c 2.09155,2.62884 3.78647,4.94344 3.76654,5.14355 -0.0201,0.20008 0.0622,0.30295 0.18253,0.22855 0.19773,-0.12219 3.16103,3.34708 3.16103,3.70072 0,0.0816 -0.6846,0.48903 -1.52136,0.9053 -0.83675,0.41627 -2.11666,1.0853 -2.84427,1.48675 -0.7276,0.40142 -2.69211,1.44843 -4.36562,2.32664 -1.67347,0.8782 -3.27755,1.75606 -3.56461,1.9508 -0.80066,0.54319 -1.40458,0.42545 -1.91597,-0.37354 z m -15.6463,-22.66421 c -0.26412,-0.44966 -0.93507,-1.71053 -1.49104,-2.80194 -0.55598,-1.0914 -1.54461,-2.98722 -2.19696,-4.21296 -0.91109,-1.7118 -1.12215,-2.32531 -0.91024,-2.64583 0.15173,-0.22947 0.41486,-0.38455 0.58476,-0.34454 0.16987,0.04 0.24307,-0.0338 0.16263,-0.16391 -0.0804,-0.13015 0.586,-0.8119 1.48097,-1.51503 0.89496,-0.7031 2.12223,-1.70093 2.72725,-2.21734 0.60505,-0.51642 1.67919,-1.41518 2.38703,-1.99726 0.70785,-0.58209 1.8819,-1.56435 2.60904,-2.18281 0.72711,-0.61847 1.41034,-1.12448 1.51829,-1.12448 0.10795,0 0.63479,0.8632 1.1708,1.91823 0.53601,1.05502 1.59995,3.10885 2.36435,4.56406 3.30507,6.29203 4.63458,8.86103 4.63458,8.95511 0,0.10972 -0.0781,0.13473 -8.66969,2.77543 l -5.89156,1.81083 z m 82.6905501,-9.98381 c -1.54803,-3.96296 -2.78744,-7.2308 -2.75424,-7.26186 0.076,-0.0711 16.8074199,-2.75418 17.1750899,-2.75418 0.18288,0 0.20863,2.47054 0.0793,7.60677 -0.10534,4.18372 -0.22059,7.64013 -0.25615,7.6809 -0.0759,0.087 -1.88031,0.39156 -6.61917,1.11697 -1.89177,0.28961 -3.74798,0.59185 -4.12493,0.67164 -0.675,0.14293 -0.72771,0.0366 -3.4999399,-7.06024 z m 28.2623699,-1.21687 c -0.72761,-1.27043 -1.41796,-2.49005 -1.53413,-2.71024 -0.11617,-0.22021 -0.47335,-0.83471 -0.79375,-1.36554 -2.33401,-3.86699 -3.86944,-6.65898 -3.75972,-6.83651 0.0712,-0.11523 0.45804,-0.28705 0.85957,-0.3818 0.68386,-0.16139 7.5323,-2.35463 12.90094,-4.13157 1.30969,-0.4335 2.50614,-0.78674 2.65875,-0.785 0.21445,0.003 1.81832,11.38204 2.06597,14.65824 0.0321,0.4228 -0.75741,0.75898 -5.12159,2.18114 -2.83764,0.9247 -5.33795,1.68125 -5.55625,1.68119 -0.2214,-5e-5 -0.98178,-1.02134 -1.71979,-2.30991 z m 27.34027,-8.23818 c -0.094,-0.24807 -6.35797,-7.40846 -8.52988,-9.75055 -0.71385,-0.76981 -1.23038,-1.4672 -1.14783,-1.54972 0.18962,-0.18966 0.86772,-0.57603 5.24781,-2.99027 1.95139,-1.07556 4.23125,-2.36331 5.06642,-2.86165 0.83517,-0.49837 1.65725,-0.82034 1.82683,-0.71554 0.16958,0.10482 0.2408,0.0813 0.15822,-0.0523 -0.0826,-0.13361 0.55548,-0.63383 1.41788,-1.11157 1.14345,-0.63343 1.60245,-0.77573 1.69521,-0.52556 0.07,0.1887 1.17063,3.45784 2.44592,7.26474 1.97628,5.89944 2.2598,6.95804 1.91976,7.16791 -0.21939,0.13544 -1.05378,0.61063 -1.85415,1.05603 -0.80036,0.4454 -2.2108,1.2382 -3.1343,1.76178 -0.92345,0.52361 -1.72533,0.952 -1.78195,0.952 -0.0566,0 -0.6834,0.35718 -1.3929,0.79375 -1.34183,0.82566 -1.78781,0.9548 -1.93704,0.56099 z m 23.30167,-15.48066 c -10.67689,-8.17608 -12.08257,-9.33159 -10.71224,-8.80573 0.24572,0.0943 0.38042,0.0641 0.29938,-0.067 -0.081,-0.13113 0.95454,-1.12898 2.30137,-2.21742 1.34679,-1.08844 3.34169,-2.7635 4.4331,-3.72237 1.0914,-0.95888 2.13174,-1.69037 2.31193,-1.62555 0.18015,0.0648 0.29921,0.007 0.26458,-0.12763 -0.095,-0.37031 1.95892,-2.12475 2.26557,-1.93522 0.14769,0.0913 0.18569,0.0337 0.0851,-0.12898 -0.16415,-0.2656 1.06442,-1.32405 1.25417,-1.08053 0.77301,0.99204 2.51294,4.31921 2.38001,4.55115 -0.0988,0.17235 -0.0835,0.22643 0.0339,0.12017 0.11745,-0.10623 1.31405,1.73924 2.65919,4.10104 l 2.4456,4.29421 -0.6985,0.62037 c -0.68665,0.60982 -3.76264,3.22234 -6.67745,5.67127 l -1.48093,1.24425 z m 19.472647,-19.22137 c -1.16417,-0.57406 -2.08397,-1.17274 -2.04396,-1.3304 0.0399,-0.15766 -0.0445,-0.21421 -0.1878,-0.12567 -0.24262,0.14996 -8.890897,-3.94314 -9.121937,-4.31728 -0.14898,-0.24128 3.03652,-4.15264 3.31685,-4.0726 0.12739,0.0364 0.20185,-0.0352 0.16549,-0.15907 -0.0364,-0.12386 1.005417,-1.57353 2.315107,-3.22147 1.30969,-1.64795 2.96513,-3.76109 3.67879,-4.69587 l 1.29752,-1.69962 0.81915,0.87192 c 0.4505,0.47955 1.17631,1.30528 1.61287,1.83495 0.43656,0.52967 2.31526,2.73308 4.17494,4.89647 1.85968,2.16339 3.32653,4.0759 3.25969,4.25004 -0.15864,0.41348 -6.86498,8.80976 -7.03775,8.81124 -0.0728,0 -1.08479,-0.46858 -2.24896,-1.04264 z M -79.774907,134.24801 c -0.21826,-0.0503 -3.50509,-0.58583 -7.30405,-1.19019 l -6.90718,-1.09883 -0.1439,-5.72442 c -0.0791,-3.14844 -0.10467,-5.76567 -0.0567,-5.81609 0.10749,-0.113 9.16626,-2.39713 9.37023,-2.36267 0.0808,0.0137 0.32544,-0.0487 0.5437,-0.13841 0.65674,-0.27008 4.8641,-1.23032 4.96197,-1.13246 0.0753,0.0753 0.55933,13.9105 0.58617,16.75593 0.008,0.84158 -0.11285,0.92293 -1.05022,0.70714 z m 198.378717,-8.81387 c -6.1812,-2.09581 -7.67715,-2.67504 -6.90859,-2.67504 0.14552,0 0.26688,-0.14883 0.26966,-0.33073 0.003,-0.1819 0.36529,-0.92604 0.80545,-1.65365 3.15944,-5.22241 5.14916,-8.55349 6.28914,-10.52872 0.72761,-1.26073 1.41428,-2.29479 1.52596,-2.29791 0.11165,-0.003 2.74759,2.24123 5.85764,4.98743 l 5.65459,4.99308 -0.71712,1.22784 c -0.39437,0.67531 -0.78598,1.15893 -0.87022,1.07469 -0.0842,-0.0842 -0.13531,0.004 -0.11345,0.19522 0.0742,0.65179 -4.0875,7.36125 -4.55136,7.33758 -0.23982,-0.0122 -3.49859,-1.06064 -7.2417,-2.32979 z m 7.59753,1.03215 c 0.0927,-0.14998 -0.0135,-0.19433 -0.249,-0.10398 -0.45836,0.17589 -0.54218,0.36554 -0.1616,0.36554 0.13692,0 0.3217,-0.1177 0.4106,-0.26156 z M -81.759277,107.77412 c -1.30969,-0.5158 -2.64915,-1.00047 -2.97657,-1.07705 -0.32741,-0.0766 -0.59531,-0.21891 -0.59531,-0.31629 0,-0.0974 -0.20835,-0.18042 -0.46302,-0.18454 -0.25467,-0.004 -2.04657,-0.59307 -3.98201,-1.30877 -3.10974,-1.14994 -3.50376,-1.36335 -3.38805,-1.83513 0.072,-0.29363 0.50222,-2.85317 0.956,-5.68788 0.45378,-2.8347 0.8473,-5.17093 0.8745,-5.1916 0.0693,-0.0527 15.38725,-0.85187 15.43103,-0.80508 0.0317,0.0339 -2.29281,14.33493 -2.68334,16.50851 -0.085,0.47294 -0.29792,0.85443 -0.47325,0.84776 -0.17529,-0.007 -1.3903,-0.43414 -2.69998,-0.94993 z m 213.433287,-5.81274 c -4.12157,-0.46666 -7.5439,-0.89866 -7.60523,-0.95999 -0.12613,-0.12614 5.26272,-16.25148 5.51545,-16.50423 0.0898,-0.0898 0.73506,0.16235 1.43383,0.56034 0.69881,0.398 1.92542,1.08651 2.72579,1.53002 0.80036,0.44352 1.89933,1.08403 2.44213,1.42336 0.54282,0.33933 1.04539,0.61697 1.11686,0.61697 0.0715,0 1.03613,0.53578 2.14378,1.19062 1.10763,0.65485 2.09333,1.19328 2.19044,1.19651 0.0971,0.003 0.44672,0.21382 0.77692,0.46797 l 0.60039,0.46209 -0.65058,1.91274 c -0.3578,1.05202 -0.74401,2.06183 -0.85823,2.24402 -0.11425,0.18219 -0.24498,0.60246 -0.29057,0.93392 -0.0874,0.63583 -1.58469,5.02151 -1.87637,5.49615 -0.11639,0.18942 -2.55836,0.008 -7.66461,-0.57049 z M -74.364177,83.36885 c -0.13825,-0.12754 -0.84667,-0.55853 -1.57427,-0.95774 -0.7276,-0.39921 -2.0968,-1.14955 -3.04271,-1.66741 -0.94587,-0.51786 -2.55323,-1.4281 -3.57187,-2.02276 -1.01865,-0.59465 -2.41762,-1.37686 -3.10886,-1.73825 -0.69123,-0.36138 -1.25677,-0.76142 -1.25677,-0.88897 0,-0.12756 0.79661,-2.59831 1.77021,-5.49056 l 1.7702,-5.25865 h 0.82166 c 0.733,0 10.71858,1.07925 13.54631,1.46408 l 1.1073,0.1507 -2.81298,8.32074 c -1.54711,4.5764 -2.94436,8.32073 -3.10491,8.32073 -0.16058,0 -0.40505,-0.10435 -0.54331,-0.23191 z M 131.95817,76.02452 c 0.0796,-0.41697 0.72232,-4.35943 1.42822,-8.76101 0.70591,-4.40159 1.38658,-8.00323 1.51257,-8.00365 0.126,-7.9e-4 2.50725,0.84115 5.29167,1.87016 2.78442,1.029 5.77697,2.10002 6.65009,2.38005 2.61324,0.8381 2.48534,0.27427 1.4777,6.51652 -0.48866,3.02741 -0.96155,5.58435 -1.05082,5.68207 -0.0893,0.0977 -2.90073,0.30754 -6.24771,0.46625 -3.34698,0.1587 -6.78768,0.36037 -7.64598,0.44815 l -1.56052,0.15959 z M -67.868657,57.36005 c -1.81899,-1.59522 -4.02167,-3.53259 -4.89479,-4.30524 -0.87313,-0.77265 -1.99298,-1.75655 -2.48857,-2.18645 l -0.90106,-0.78163 0.88688,-1.48274 c 0.48779,-0.81551 1.00094,-1.41224 1.14039,-1.32606 0.13942,0.0862 0.17258,0.0258 0.0737,-0.13424 -0.23548,-0.38102 1.96268,-4.04764 2.30117,-3.83845 0.14361,0.0888 0.17646,0.0256 0.0734,-0.14114 -0.20626,-0.33376 1.06,-2.66747 1.54923,-2.85521 0.27118,-0.10406 13.5775,4.1961 14.32098,4.62806 0.17949,0.1043 -0.32583,1.1839 -1.34673,2.87716 -0.89874,1.49061 -1.71895,2.62534 -1.82266,2.5216 -0.10375,-0.10373 -0.11988,-0.009 -0.0359,0.20949 0.084,0.21896 -0.0929,0.66181 -0.3932,0.98413 -0.30029,0.32231 -0.48867,0.58602 -0.41868,0.58602 0.0908,0 -4.42803,7.78783 -4.70432,8.10746 -0.018,0.0207 -1.52083,-1.26753 -3.33986,-2.86276 z M 134.94204,42.5739 c -0.10732,-4.81124 -0.14809,-8.79476 -0.0906,-8.85228 0.0575,-0.0575 3.4473,0.43958 7.53279,1.10467 l 7.42823,1.20925 0.16589,1.75605 c 0.0913,0.96583 0.16674,3.60421 0.16777,5.86308 l 0.003,4.10702 -1.52135,0.34785 c -0.83674,0.19133 -4.15639,0.9923 -7.37701,1.77996 -3.22061,0.78765 -5.91343,1.4321 -5.98405,1.4321 -0.0706,0 -0.21619,-3.93647 -0.32353,-8.7477 z M -53.581157,34.75048 c -1.67347,-1.98102 -3.60567,-4.25772 -4.29373,-5.05933 -0.68806,-0.80161 -1.17566,-1.57937 -1.08359,-1.72835 0.0921,-0.14898 0.0473,-0.19662 -0.0996,-0.10586 -0.14686,0.0908 -0.53968,-0.12523 -0.87291,-0.47997 l -0.60593,-0.64498 0.89817,-1.03404 c 0.49403,-0.56873 1.89597,-2.29634 3.11545,-3.83913 1.21945,-1.5428 2.31941,-2.74192 2.44436,-2.6647 0.12492,0.0772 0.16479,-0.0221 0.0885,-0.22078 -0.0762,-0.19865 0.0876,-0.56583 0.36396,-0.81597 0.48087,-0.43519 0.80148,-0.30549 7.43539,3.0077 l 6.93286,3.4625 -0.87764,1.01129 c -0.4827,0.5562 -1.8754,2.27356 -3.09485,3.81636 -1.21948,1.54279 -2.32375,2.73924 -2.45396,2.65877 -0.13021,-0.0805 -0.20401,-0.0131 -0.16404,0.1496 0.0671,0.27319 -4.2599,6.0397 -4.5575,6.07366 -0.0727,0.008 -1.50149,-1.60574 -3.175,-3.58677 z m 18.78305,-16.84919 c -0.49494,-0.90034 -0.86532,-1.6832 -0.82306,-1.73969 0.0423,-0.0565 -0.0361,-0.17556 -0.1742,-0.26459 -0.20045,-0.12922 -3.99412,-6.7050604 -5.30285,-9.1918504 -0.26949,-0.51205 -0.0745,-0.75348 2.14312,-2.65335 1.34176,-1.14952 3.33993,-2.82016 4.44038,-3.71253004 l 2.00078,-1.62249996 3.13598,2.42377 c 1.7248,1.33306 4.39632,3.38744 5.93672,4.56528 1.54037,1.17784 2.80071,2.26807 2.80071,2.42273 0,0.34352 -4.9112,4.4581904 -5.2105,4.3654404 -0.1174,-0.0364 -0.18369,0.0286 -0.14732,0.14431 0.10164,0.32342 -4.31521,4.04437 -4.59532,3.87127 -0.13553,-0.0838 -0.21371,-0.0186 -0.17374,0.14477 0.04,0.1634 -0.64805,0.87913 -1.52901,1.59051 l -1.60175,1.29342 z m 19.63177,-17.97500044 c -0.74856,-2.21919996 -1.40508,-4.27301996 -1.45895,-4.56405996 -0.0538,-0.29105 -0.248,-0.88636 -0.43148,-1.32292 -0.18348,-0.43656 -0.62064,-1.62496 -0.97152,-2.64088 -0.74037,-2.1436696 -0.81632,-2.0101796 1.95221,-3.4318096 0.83654,-0.42956 1.9377,-1.03506 2.447,-1.34555 0.50934,-0.31048 1.8723,-1.07865 3.02885,-1.707042 l 2.1028401,-1.142523 1.64652,1.825525 c 0.90558,1.00405 1.61487,1.8572 1.57614,1.89591 -0.0387,0.0387 0.52638,0.69404 1.25574,1.45629 2.7631,2.8877396 3.3545,3.5336196 3.3545,3.6634196 0,0.0735 0.54402,0.71785 1.2089,1.43183 1.12091,1.20369 1.17439,1.32334 0.73519,1.64451 -0.26053,0.1905 -0.63211,0.28558 -0.82575,0.21127 -0.19364,-0.0743 -0.2945,-0.0419 -0.22412,0.0719 0.19332,0.31282 -7.71479,4.61684996 -8.07445,4.39455996 -0.17265,-0.1067 -0.23954,-0.0777 -0.1511,0.0654 0.11981,0.1938 -5.2914801,3.52901004 -5.7257201,3.52901004 -0.0461,0 -0.69624,-1.8157 -1.4448,-4.03489004 z M -190.63532,-47.634569 v -44.981169 l 16.47032,0.06815 16.47031,0.06815 v 40.745831 40.745837 l -0.84908,1.7925396 c -0.94473,1.99444 -3.11932,4.34136 -4.83235,5.21528 -2.44689,1.24831 -3.37125,1.32655 -15.67312,1.32655 h -11.58608 z M 8.5949431,-8.1435004 c -2.7e-4,-0.10915 -0.42059,-3.4031796 -0.93342,-7.3200846 -0.51283,-3.916908 -0.89108,-7.245652 -0.84056,-7.397216 0.0505,-0.151564 2.52441,-1.065204 5.4974799,-2.030312 l 5.40561,-1.75474 0.81089,1.346748 c 0.44598,0.740711 1.17433,2.001591 1.61851,2.801956 0.44418,0.800364 1.51412,2.645833 2.37769,4.101041 2.96827,5.001908 3.04796,5.158668 2.68048,5.271508 -0.18909,0.058 -2.39949,0.77682 -4.91201,1.59727 -2.51252,0.82044 -4.71516,1.40722 -4.89479,1.30394 -0.17964,-0.10327 -0.23936,-0.0913 -0.13272,0.0265 0.10665,0.11784 -1.20304,0.6715296 -2.91042,1.2304296 -3.1811299,1.04132 -3.7650199,1.16889 -3.7667399,0.82296 z M 32.794643,-17.10859 c 0.0721,-0.999177 0.19763,-4.430511 0.27902,-7.625191 0.0814,-3.194677 0.17977,-5.840304 0.21861,-5.879168 0.0979,-0.09788 11.3779,-1.942955 11.41557,-1.867242 0.0166,0.03365 0.5853,1.489917 1.26348,3.236167 0.67814,1.74625 1.93689,4.960937 2.79724,7.14375 l 1.56422,3.96875 -3.33978,0.569375 c -3.45306,0.588693 -10.85395,1.771997 -13.06791,2.089399 l -1.2615,0.180842 z m 89.873057,0.06443 c -0.32851,-0.59805 -1.85531,-3.528142 -3.39302,-6.511319 -1.53765,-2.983177 -3.13827,-6.034452 -3.5569,-6.780614 l -0.7611,-1.356657 0.99304,-0.267848 c 0.5462,-0.14732 3.75515,-1.114404 7.131,-2.149073 3.37581,-1.034674 6.29983,-1.881224 6.49774,-1.881224 0.19793,0 0.59724,0.506018 0.88736,1.124479 0.29009,0.618463 1.4633,2.899955 2.6071,5.069975 l 2.07967,3.945493 -0.77052,0.645652 c -0.42378,0.355105 -1.0106,0.84182 -1.30397,1.081588 -0.29339,0.239765 -2.62141,2.175404 -5.17334,4.301418 l -4.63987,3.865483 z m -13.6139,-23.559492 c -1.1181,-1.372849 -2.03287,-2.563474 -2.03287,-2.645833 0,-0.08236 -0.24246,-0.39221 -0.53885,-0.688557 -0.29633,-0.296355 -0.45651,-0.671936 -0.35597,-0.834633 0.10414,-0.168484 0.0641,-0.222441 -0.093,-0.125349 -0.15171,0.09375 -0.71384,-0.364104 -1.24925,-1.017456 -0.53533,-0.653354 -0.88313,-1.187915 -0.7728,-1.187915 0.11028,0 -0.003,-0.148828 -0.24934,-0.330729 -0.24744,-0.181902 -1.14565,-1.22205 -1.99607,-2.311448 l -1.5462,-1.980719 3.73145,-1.999604 c 8.41025,-4.506854 9.93087,-5.262832 10.08488,-5.013664 0.0881,0.142494 0.0638,0.2627 -0.0539,0.267129 -0.11771,0.0044 -0.003,0.130802 0.25453,0.280842 0.25771,0.15004 0.39772,0.387495 0.31105,0.527677 -0.0866,0.140182 -0.0426,0.22216 0.0978,0.182176 0.35491,-0.101055 2.1668,2.224368 1.97495,2.534724 -0.0858,0.138854 -0.0246,0.171196 0.13618,0.07188 0.16068,-0.09932 0.40569,0.03111 0.54441,0.289849 0.13875,0.258741 1.0255,1.417063 1.97062,2.574059 l 1.71839,2.103628 -0.66387,0.870358 c -0.3651,0.478697 -0.78806,0.793591 -0.93988,0.699762 -0.16362,-0.101124 -0.19664,-0.04215 -0.0811,0.144841 0.1143,0.184975 -0.1697,0.731551 -0.68675,1.321509 -0.48493,0.553339 -1.65015,1.947836 -2.58937,3.098884 -0.93925,1.151044 -1.86436,2.271401 -2.05579,2.489682 -0.19142,0.218281 -0.83206,1.021953 -1.42364,1.785938 -0.59156,0.763984 -1.16269,1.389062 -1.26915,1.389062 -0.10647,0 -1.1084,-1.123241 -2.22645,-2.49609 z m -16.783807,-19.39674 c -1.41859,-1.272514 -2.7168,-2.443329 -2.88489,-2.601815 -0.16806,-0.158485 -1.74241,-1.57472 -3.49853,-3.147192 -1.75612,-1.572469 -3.12777,-2.96445 -3.04819,-3.093284 0.0796,-0.12883 0.0466,-0.217191 -0.0733,-0.196355 -1.43976,0.250111 -1.08606,-0.334346 1.30329,-2.153451 1.20052,-0.91403 2.68882,-2.0735 3.30729,-2.576598 0.61843,-0.503097 1.1263,-0.811082 1.12853,-0.684411 0.003,0.12667 0.10591,0.06956 0.23042,-0.126915 0.12451,-0.196472 1.34308,-1.219814 2.70793,-2.274094 l 2.48156,-1.916869 2.64583,2.331932 c 1.45521,1.282562 3.40831,3.035038 4.340247,3.894386 l 1.69442,1.562457 -1.66058,2.877622 c -2.181727,3.780671 -2.287847,3.967308 -4.230737,7.441684 -0.91546,1.637112 -1.70937,2.976562 -1.76424,2.976562 -0.0549,0 -1.26042,-1.041146 -2.67901,-2.313659 z m -23.49498,-18.228874 c -3.63054,-2.266852 -6.73894,-4.295055 -6.9076,-4.507121 -0.16863,-0.212069 -0.37574,-0.380908 -0.46023,-0.375201 -0.0845,0.0057 -0.33521,-0.0593 -0.55714,-0.144465 -0.3192,-0.122497 -0.19936,-0.383561 0.57361,-1.249532 0.92142,-1.032242 5.64974,-6.135959 8.3114,-8.971298 l 1.211,-1.290013 3.94838,2.488625 c 2.17159,1.368743 4.37557,2.781787 4.8977,3.1401 l 0.94927,0.651475 -2.20239,6.073418 c -1.21131,3.340383 -2.34288,6.371079 -2.5146,6.734881 -0.17166,0.363802 -0.34295,0.821196 -0.38068,1.016429 -0.0377,0.195239 -0.11335,0.399812 -0.16817,0.454607 -0.0548,0.0548 -3.07004,-1.755058 -6.70055,-4.021905 z m -19.30096,-10.179301 c -3.77278,-1.537307 -8.60401,-3.475771 -11.19403,-4.491443 -0.59954,-0.235112 -0.60226,-0.253707 -0.14986,-1.019545 0.25343,-0.429035 0.53816,-0.732247 0.63271,-0.673802 0.0946,0.05845 0.17378,-0.03732 0.176,-0.212824 0.004,-0.1755 1.2283,-2.224091 2.72461,-4.552424 1.4963,-2.328335 3.06786,-4.791585 3.49232,-5.473885 l 0.77181,-1.24055 1.11178,0.38857 c 3.1878,1.11418 8.60707,3.40699 8.49213,3.59293 -0.0725,0.11733 0.0233,0.15641 0.21266,0.0868 1.04298,-0.38296 1.02542,0.16776 -0.25164,7.886644 -0.69081,4.175354 -1.31551,7.580464 -1.38828,7.566907 -0.0728,-0.01355 -2.15636,-0.849397 -4.63021,-1.857428 z M 21.785473,-96.9201 c -9.45758,-1.826743 -8.56378,-1.337352 -7.35298,-4.02601 0.32769,-0.7276 0.62445,-1.45963 0.65952,-1.62673 0.22807,-1.08655 3.98021,-10.14927 4.20564,-10.15793 0.15317,-0.006 2.73099,0.43689 5.72847,0.98396 l 5.44996,0.99468 0.17174,5.29989 c 0.26221,8.093193 0.22962,10.198528 -0.15763,10.172134 -0.18189,-0.01238 -4.09903,-0.750397 -8.70472,-1.639994 z m -27.0404499,-2.769062 c -4.8601501,-0.05855 -6.2831501,-0.150911 -6.1920601,-0.401898 0.065,-0.17923 0.76003,-3.57033 1.5444301,-7.53577 l 1.42617,-7.2099 h 5.74245 c 3.15835,0 5.79927,0.092 5.86877,0.2044 0.1311,0.21212 3.07989,14.48007 3.07989,14.902281 0,0.131534 -1.16085,0.211646 -2.57969,0.17803 -1.41883,-0.03362 -5.4193,-0.09534 -8.88996,-0.137143 z"
       id="path896"
       inkscape:connector-curvature="0"
       inkscape:export-xdpi="1200"
       inkscape:export-ydpi="1200" />
  </g>
</svg>
